# File created by Blade
# Date/Time:  Thu Jan 22 16:52:56 2015
# Frame Rate: 120.000 fps
#------------------------------------------------------
:FULLY-SPECIFIED
:DEGREES
1451
root 3.263998 3.433504 0.013086 -21.564095 3.430564 -0.326121
RightUpLeg -53.151907 -41.430341 -27.107966
RightLeg 1.525334 -0.000000 -0.000000
RightFoot 2.922922 -30.797044 34.463182
RightToeBase 6.075099 -0.000000 -0.000000
LeftUpLeg -68.563335 31.037265 3.508699
LeftLeg 3.262136 -0.000000 -0.000000
LeftFoot 11.155435 32.006504 -38.869873
LeftToeBase -0.353497 -0.000000 0.000000
Spine 84.938212 -5.682392 -10.228576
RightShoulder 38.775640 55.796697 -24.575628
RightArm 22.396987 10.315451 54.481457
RightForeArm -14.612536 -0.000000 34.717406
RightHand 3.783896 -0.000000 -10.581662
RightHandThumb1 -24.326973 -0.000000 -32.862282
LeftShoulder 4.136711 12.486242 35.205368
LeftArm 87.869963 -37.570287 -46.598596
LeftForeArm 33.156237 -0.000000 15.885754
LeftHand -12.322846 -0.000000 -0.000095
LeftHandThumb1 -26.253704 0.000000 33.147579
Head 59.962026 23.986376 12.714793
1452
root 3.262045 3.430271 0.010032 -21.627409 3.396294 -0.359371
RightUpLeg -53.129386 -41.407611 -27.055055
RightLeg 1.527516 -0.000000 -0.000000
RightFoot 2.922960 -30.833129 34.472709
RightToeBase 6.063600 -0.000000 -0.000000
LeftUpLeg -68.522175 31.056484 3.581686
LeftLeg 3.300734 -0.000000 -0.000000
LeftFoot 11.120166 32.026809 -38.827782
LeftToeBase -0.377259 -0.000000 0.000000
Spine 84.931943 -5.650019 -10.201206
RightShoulder 38.704360 55.629624 -24.643621
RightArm 22.435997 10.573956 54.815010
RightForeArm -14.529676 0.000000 34.797928
RightHand 4.075497 -0.000000 -10.843616
RightHandThumb1 -24.326973 -0.000000 -32.862282
LeftShoulder 4.185629 12.322853 35.100009
LeftArm 87.792685 -37.389882 -46.649730
LeftForeArm 33.553788 -0.000000 15.904823
LeftHand -12.415990 -0.000000 0.190256
LeftHandThumb1 -26.253704 0.000000 33.147579
Head 60.055280 23.960414 12.603468
1453
root 3.254530 3.431098 0.006404 -21.703511 3.314701 -0.378485
RightUpLeg -53.093192 -41.310182 -27.007399
RightLeg 1.516350 -0.000000 -0.000000
RightFoot 2.869918 -30.896260 34.470327
RightToeBase 6.096467 -0.000000 -0.000000
LeftUpLeg -68.482339 31.151622 3.628803
LeftLeg 3.350509 -0.000000 -0.000000
LeftFoot 11.111156 31.991202 -38.813438
LeftToeBase -0.425884 -0.000000 0.000000
Spine 84.932459 -5.551107 -10.192552
RightShoulder 38.857476 55.724254 -24.262093
RightArm 22.378516 10.406759 55.006940
RightForeArm -14.432083 -0.000000 34.805002
RightHand 4.119694 -0.000000 -11.097818
RightHandThumb1 -24.326973 -0.000000 -32.862282
LeftShoulder 4.231646 12.293461 34.973373
LeftArm 87.740937 -37.359212 -46.553415
LeftForeArm 33.646361 -0.000000 15.897113
LeftHand -12.476180 -0.000000 0.122501
LeftHandThumb1 -26.253704 0.000000 33.147579
Head 60.109770 23.923893 12.511270
1454
root 3.249424 3.429335 0.003973 -21.807476 3.264544 -0.416153
RightUpLeg -53.009697 -41.240639 -26.996038
RightLeg 1.521334 -0.000000 -0.000000
RightFoot 2.830641 -30.950304 34.471930
RightToeBase 6.114429 -0.000000 -0.000000
LeftUpLeg -68.407730 31.195559 3.720364
LeftLeg 3.404187 -0.000000 -0.000000
LeftFoot 11.082858 31.950803 -38.828890
LeftToeBase -0.464797 -0.000000 0.000000
Spine 84.946840 -5.495024 -10.228125
RightShoulder 38.861297 55.506426 -24.487950
RightArm 22.283969 10.789808 55.304749
RightForeArm -14.242710 -0.000000 35.106380
RightHand 4.178933 -0.000000 -11.128520
RightHandThumb1 -24.326973 -0.000000 -32.862282
LeftShoulder 4.229329 12.448893 34.901303
LeftArm 87.818989 -37.389950 -46.562606
LeftForeArm 33.661249 -0.000000 15.866256
LeftHand -12.590320 -0.000000 0.132154
LeftHandThumb1 -26.253704 0.000000 33.147579
Head 60.188883 23.939356 12.496264
1455
root 3.246581 3.427208 -0.000365 -21.869009 3.239658 -0.446818
RightUpLeg -52.986743 -41.227262 -26.950836
RightLeg 1.533749 -0.000000 -0.000000
RightFoot 2.791032 -30.999614 34.506788
RightToeBase 6.088957 -0.000000 -0.000000
LeftUpLeg -68.370983 31.203495 3.788892
LeftLeg 3.451127 -0.000000 -0.000000
LeftFoot 11.085299 31.918709 -38.787667
LeftToeBase -0.481293 -0.000000 0.000000
Spine 84.908697 -5.510749 -10.242736
RightShoulder 39.057470 55.631628 -24.136946
RightArm 22.217296 10.626903 55.528949
RightForeArm -14.074057 -0.000000 35.098333
RightHand 4.235088 -0.000000 -11.235597
RightHandThumb1 -24.326973 -0.000000 -32.862282
LeftShoulder 4.267093 12.430364 34.771678
LeftArm 87.688699 -37.321273 -46.439126
LeftForeArm 33.710247 0.000000 15.862146
LeftHand -12.574092 -0.000000 0.174561
LeftHandThumb1 -26.253704 0.000000 33.147579
Head 60.238104 23.902852 12.246135
1456
root 3.242756 3.425904 -0.003938 -21.962744 3.223957 -0.480245
RightUpLeg -52.913932 -41.207881 -26.938604
RightLeg 1.549294 -0.000000 -0.000000
RightFoot 2.760463 -31.027876 34.461071
RightToeBase 6.176674 -0.000000 -0.000000
LeftUpLeg -68.293527 31.200397 3.881008
LeftLeg 3.499390 -0.000000 -0.000000
LeftFoot 11.081231 31.862959 -38.755255
LeftToeBase -0.445692 -0.000000 0.000000
Spine 84.901244 -5.481827 -10.234351
RightShoulder 39.194103 55.731362 -23.829871
RightArm 22.105109 10.400144 55.647593
RightForeArm -13.929577 -0.000000 35.107357
RightHand 4.251385 -0.000000 -11.297391
RightHandThumb1 -24.326973 -0.000000 -32.862282
LeftShoulder 4.288835 12.406466 34.765216
LeftArm 87.652398 -37.194931 -46.436021
LeftForeArm 33.813070 0.000000 15.840872
LeftHand -12.627271 -0.000000 0.288283
LeftHandThumb1 -26.253704 0.000000 33.147579
Head 60.286796 23.946950 12.328034
1457
root 3.239793 3.425306 -0.007604 -22.088593 3.217350 -0.502202
RightUpLeg -52.811008 -41.185090 -26.956442
RightLeg 1.570116 -0.000000 -0.000000
RightFoot 2.699585 -31.059330 34.498826
RightToeBase 6.149868 -0.000000 -0.000000
LeftUpLeg -68.157592 31.183601 3.995719
LeftLeg 3.528816 -0.000000 -0.000000
LeftFoot 11.064152 31.823976 -38.790481
LeftToeBase -0.503601 -0.000000 0.000000
Spine 84.906818 -5.428818 -10.182383
RightShoulder 39.239761 55.796146 -23.524310
RightArm 22.047880 10.087360 55.684700
RightForeArm -13.756921 -0.000000 35.052472
RightHand 4.285634 -0.000000 -11.274541
RightHandThumb1 -24.326973 -0.000000 -32.862282
LeftShoulder 4.358055 12.464123 34.827997
LeftArm 87.724174 -37.128358 -46.507228
LeftForeArm 33.950557 -0.000000 15.784234
LeftHand -12.660531 -0.000000 0.329129
LeftHandThumb1 -26.253704 0.000000 33.147579
Head 60.244666 23.876860 12.556124
1458
root 3.237580 3.424063 -0.011386 -22.145896 3.197586 -0.522562
RightUpLeg -52.805150 -41.183920 -26.907719
RightLeg 1.598573 -0.000000 -0.000000
RightFoot 2.679798 -31.079679 34.511527
RightToeBase 6.066155 -0.000000 -0.000000
LeftUpLeg -68.063793 31.165422 4.113987
LeftLeg 3.529516 -0.000000 -0.000000
LeftFoot 11.015950 31.802798 -38.824682
LeftToeBase -0.495763 -0.000000 0.000000
Spine 84.861674 -5.527530 -10.323335
RightShoulder 39.618503 55.977255 -23.325368
RightArm 21.880620 10.008750 55.952501
RightForeArm -13.910811 0.000000 35.093644
RightHand 4.191989 -0.000000 -11.395107
RightHandThumb1 -24.326973 -0.000000 -32.862282
LeftShoulder 4.277789 12.646284 34.568951
LeftArm 87.583016 -37.155578 -46.202101
LeftForeArm 33.873937 0.000000 15.748497
LeftHand -12.630730 -0.000000 0.309695
LeftHandThumb1 -26.253704 0.000000 33.147579
Head 60.061848 23.886427 11.841126
1459
root 3.237169 3.425705 -0.014948 -22.265926 3.210280 -0.568389
RightUpLeg -52.692250 -41.198752 -26.903118
RightLeg 1.612051 -0.000000 -0.000000
RightFoot 2.650790 -31.073089 34.499406
RightToeBase 6.087288 -0.000000 -0.000000
LeftUpLeg -67.860558 31.080120 4.325631
LeftLeg 3.498203 -0.000000 -0.000000
LeftFoot 10.953207 31.824815 -38.860923
LeftToeBase -0.522446 -0.000000 0.000000
Spine 84.835455 -5.536340 -10.172208
RightShoulder 39.552199 55.878412 -23.364667
RightArm 21.752190 9.856863 55.932170
RightForeArm -13.890400 -0.000000 35.162278
RightHand 4.196043 -0.000000 -11.425194
RightHandThumb1 -24.326973 -0.000000 -32.862282
LeftShoulder 4.470809 12.655405 34.612332
LeftArm 87.610047 -37.122637 -46.246689
LeftForeArm 33.877538 -0.000000 15.670193
LeftHand -12.646194 0.000000 0.173795
LeftHandThumb1 -26.253704 0.000000 33.147579
Head 59.925689 23.690451 11.715149
1460
root 3.233125 3.421713 -0.020038 -22.335469 3.172461 -0.567425
RightUpLeg -52.690080 -41.151777 -26.878582
RightLeg 1.653279 -0.000000 -0.000000
RightFoot 2.608944 -31.073107 34.472074
RightToeBase 6.155238 -0.000000 -0.000000
LeftUpLeg -67.756860 31.088385 4.428033
LeftLeg 3.491939 -0.000000 -0.000000
LeftFoot 10.917730 31.821626 -38.882583
LeftToeBase -0.540635 -0.000000 0.000000
Spine 84.720612 -5.474756 -10.056787
RightShoulder 39.875623 56.167594 -22.824417
RightArm 21.346088 9.343839 55.902953
RightForeArm -13.969587 -0.000000 35.095220
RightHand 4.186300 -0.000000 -11.428073
RightHandThumb1 -24.326973 -0.000000 -32.862282
LeftShoulder 4.653773 12.820565 34.623649
LeftArm 87.730564 -37.173712 -46.238377
LeftForeArm 33.947352 0.000000 15.582855
LeftHand -12.618835 -0.000000 0.149169
LeftHandThumb1 -26.253704 0.000000 33.147579
Head 59.811260 23.496085 11.735928
1461
root 3.233064 3.421516 -0.023382 -22.454134 3.161585 -0.606568
RightUpLeg -52.601600 -41.144932 -26.853520
RightLeg 1.661420 -0.000000 -0.000000
RightFoot 2.632876 -31.043606 34.397204
RightToeBase 6.184412 -0.000000 -0.000000
LeftUpLeg -67.601274 31.049915 4.585200
LeftLeg 3.493983 -0.000000 -0.000000
LeftFoot 10.874721 31.804293 -38.893265
LeftToeBase -0.569369 -0.000000 0.000000
Spine 84.700562 -5.533002 -10.044734
RightShoulder 39.976540 56.170018 -22.803204
RightArm 21.300143 9.160132 55.941815
RightForeArm -14.042529 -0.000000 35.076450
RightHand 3.993380 -0.000000 -11.395497
RightHandThumb1 -24.326973 -0.000000 -32.862282
LeftShoulder 4.702588 12.719537 34.577081
LeftArm 87.495288 -36.999930 -46.139618
LeftForeArm 34.029019 -0.000000 15.593607
LeftHand -12.560058 -0.000000 0.031267
LeftHandThumb1 -26.253704 0.000000 33.147579
Head 59.542681 23.429419 11.308085
